<?xml version="1.0" encoding="UTF-8" standalone="no"?>
<svg 
    role="img" 
    xmlns="http://www.w3.org/2000/svg" 
    width="1000mm"
    height="1000mm"
    viewBox="0 0 1000 1000"
    style="max-width:1.6em; height: auto;">
    
    <path 
        id="path" 
        style="opacity:1;vector-effect:none;fill:#5f5f5f;fill-opacity:1;"
        d="M 75 0C 75 0 75 0 75 0C 33 0 0 33 0 75C 0 75 0 925 0 925C 0 967 33 1000 75 1000C 75 1000 925 1000 925 1000C 967 1000 1000 967 1000 925C 1000 925 1000 75 1000 75C 1000 33 967 0 925 0C 925 0 75 0 75 0 M 504 425C 504 425 886 425 886 425C 891 452 894 480 894 510C 894 732 725 905 504 906C 280 908 99 725 99 501C 99 277 280 95 504 95C 614 95 705 136 776 201C 776 201 661 315 661 315C 661 315 661 315 661 315C 619 275 565 254 504 254C 371 254 262 367 262 501C 262 634 371 748 504 748C 626 748 708 678 725 583C 725 583 504 583 504 583C 504 583 504 425 504 425"
        transform="">
    </path>    
</svg>